<svg width="84" height="87" viewBox="0 0 84 87" fill="none" xmlns="http://www.w3.org/2000/svg">
<path d="M48.5457 4.2271C68.0633 7.43886 82.8869 24.3624 82.8869 44.7447C82.8869 67.4742 64.481 85.7565 41.8751 85.7565C19.1457 85.7565 0.863342 67.3506 0.863342 44.7447C0.863342 24.4859 15.5633 7.56239 34.9575 4.2271" stroke="#E5E5E5" stroke-miterlimit="10" stroke-linecap="round" stroke-linejoin="round"/>
<path d="M44.9633 3.73295C44.9633 5.46237 43.6045 6.82119 41.8751 6.82119C40.1457 6.82119 38.7869 5.46237 38.7869 3.73295C38.7869 2.00354 40.1457 0.644718 41.8751 0.644718C43.481 0.521189 44.9633 2.00354 44.9633 3.73295Z" stroke="#F72A2A" stroke-width="0.5" stroke-miterlimit="10" stroke-linecap="round" stroke-linejoin="round"/>
<path d="M48.5457 4.2271C68.0633 7.43886 82.8869 24.3624 82.8869 44.7447C82.8869 67.4742 64.481 85.7565 41.8751 85.7565C19.1457 85.7565 0.863342 67.3506 0.863342 44.7447C0.863342 41.4095 1.23393 38.1977 1.97511 35.1094" stroke="#F72A2A" stroke-width="0.5" stroke-miterlimit="10" stroke-linecap="round" stroke-linejoin="round"/>
<path d="M44.5927 40.0506C46.8163 41.1624 48.2986 43.5094 48.1751 46.1035C47.928 49.6859 44.9633 52.4036 41.381 52.1565C37.7986 51.9094 35.081 48.9447 35.328 45.3624C35.4516 43.0153 36.8104 41.0388 38.7869 40.0506" stroke="#F72A2A" stroke-width="0.5" stroke-miterlimit="10" stroke-linecap="round" stroke-linejoin="round"/>
<path d="M41.7516 42.8918V36.0977" stroke="#F72A2A" stroke-width="0.5" stroke-miterlimit="10" stroke-linecap="round" stroke-linejoin="round"/>
</svg>
