<svg width="137" height="137" viewBox="0 0 137 137" fill="none" xmlns="http://www.w3.org/2000/svg">
<path d="M68.7647 136.706C106.288 136.706 136.706 106.288 136.706 68.7648C136.706 31.242 106.288 0.823654 68.7647 0.823654C31.2418 0.823654 0.823502 31.242 0.823502 68.7648C0.823502 106.288 31.2418 136.706 68.7647 136.706Z" fill="#EEEEEE"/>
<path d="M68.7516 13.28V7.47415" stroke="#01B209" stroke-width="0.25" stroke-miterlimit="10" stroke-linecap="round" stroke-linejoin="round"/>
<path d="M68.7516 125.445V131.251" stroke="#01B209" stroke-width="0.25" stroke-miterlimit="10" stroke-linecap="round" stroke-linejoin="round"/>
<path d="M12.6692 69.3624H6.98687" stroke="#01B209" stroke-width="0.25" stroke-miterlimit="10" stroke-linecap="round" stroke-linejoin="round"/>
<path d="M124.957 69.3624H130.64" stroke="#01B209" stroke-width="0.25" stroke-miterlimit="10" stroke-linecap="round" stroke-linejoin="round"/>
<path d="M29.0986 29.7094L25.0222 25.633" stroke="#01B209" stroke-width="0.25" stroke-miterlimit="10" stroke-linecap="round" stroke-linejoin="round"/>
<path d="M108.528 109.015L112.605 113.092" stroke="#01B209" stroke-width="0.25" stroke-miterlimit="10" stroke-linecap="round" stroke-linejoin="round"/>
<path d="M29.0986 109.015L25.0222 113.092" stroke="#01B209" stroke-width="0.25" stroke-miterlimit="10" stroke-linecap="round" stroke-linejoin="round"/>
<path d="M108.528 29.7094L112.605 25.633" stroke="#01B209" stroke-width="0.25" stroke-miterlimit="10" stroke-linecap="round" stroke-linejoin="round"/>
<path d="M46.6398 17.8506L44.4163 12.5389" stroke="#01B209" stroke-width="0.25" stroke-miterlimit="10" stroke-linecap="round" stroke-linejoin="round"/>
<path d="M90.9869 120.998L93.2104 126.186" stroke="#01B209" stroke-width="0.25" stroke-miterlimit="10" stroke-linecap="round" stroke-linejoin="round"/>
<path d="M17.2398 91.4742L11.928 93.8212" stroke="#01B209" stroke-width="0.25" stroke-miterlimit="10" stroke-linecap="round" stroke-linejoin="round"/>
<path d="M120.387 47.2506L125.699 45.0271" stroke="#01B209" stroke-width="0.25" stroke-miterlimit="10" stroke-linecap="round" stroke-linejoin="round"/>
<path d="M16.7457 48.6094L11.3104 46.3859" stroke="#01B209" stroke-width="0.25" stroke-miterlimit="10" stroke-linecap="round" stroke-linejoin="round"/>
<path d="M120.881 90.2389L126.316 92.3389" stroke="#01B209" stroke-width="0.25" stroke-miterlimit="10" stroke-linecap="round" stroke-linejoin="round"/>
<path d="M47.9986 121.492L45.8986 126.804" stroke="#01B209" stroke-width="0.25" stroke-miterlimit="10" stroke-linecap="round" stroke-linejoin="round"/>
<path d="M89.628 17.233L91.728 11.9212" stroke="#01B209" stroke-width="0.25" stroke-miterlimit="10" stroke-linecap="round" stroke-linejoin="round"/>
</svg>
